<svg xmlns="http://www.w3.org/2000/svg" style="fill:white;" viewBox="0 0 1024 1024"><title>Artboard 2</title><polygon points="686.55 446.4 686.55 459.84 901.61 459.84 901.61 674.9 579.02 674.9 579.02 580.81 794.08 580.81 794.08 567.37 579.02 567.37 579.02 352.31 901.61 352.31 901.61 446.4 686.55 446.4"/><polygon points="444.98 352.31 444.98 567.37 351.08 567.36 351.08 446.39 122.39 446.4 122.4 352.31 444.98 352.31"/><path d="M445,580.81v38.33a55.76,55.76,0,0,1-55.76,55.76H178.15a55.76,55.76,0,0,1-55.75-55.76V527.05H229.92v53.76Z"/><polygon points="353.21 580 568.27 580 568.27 687.53 444.78 687.53 444.78 902.58 353.21 902.59 353.21 580"/><polygon points="444.78 336.47 458.22 336.47 458.22 121.41 673.27 121.41 673.27 444 579.19 444 579.19 228.94 565.75 228.94 565.75 444 350.69 444 350.69 121.41 444.78 121.41 444.78 336.47"/><path d="M579.19,580h38.33a55.77,55.77,0,0,1,55.76,55.76V846.83a55.77,55.77,0,0,1-55.76,55.76h-92.1V795.06h53.77Z"/></svg>